<?xml version="1.0" encoding="utf-8" standalone="no"?>
<!DOCTYPE svg PUBLIC "-//W3C//DTD SVG 1.1//EN"
  "http://www.w3.org/Graphics/SVG/1.1/DTD/svg11.dtd">
<svg xmlns:xlink="http://www.w3.org/1999/xlink" width="360pt" height="360pt" viewBox="0 0 360 360" xmlns="http://www.w3.org/2000/svg" version="1.1">
 <metadata>
  <rdf:RDF xmlns:dc="http://purl.org/dc/elements/1.1/" xmlns:cc="http://creativecommons.org/ns#" xmlns:rdf="http://www.w3.org/1999/02/22-rdf-syntax-ns#">
   <cc:Work>
    <dc:type rdf:resource="http://purl.org/dc/dcmitype/StillImage"/>
    <dc:date>2023-05-24T19:50:58.556578</dc:date>
    <dc:format>image/svg+xml</dc:format>
    <dc:creator>
     <cc:Agent>
      <dc:title>Matplotlib v3.7.1, https://matplotlib.org/</dc:title>
     </cc:Agent>
    </dc:creator>
   </cc:Work>
  </rdf:RDF>
 </metadata>
 <defs>
  <style type="text/css">*{stroke-linejoin: round; stroke-linecap: butt}</style>
 </defs>
 <g id="figure_1">
  <g id="patch_1">
   <path d="M 0 360 
L 360 360 
L 360 0 
L 0 0 
z
" style="fill: #ffffff"/>
  </g>
  <g id="axes_1">
   <g id="patch_2">
    <path d="M 45 320.4 
L 324 320.4 
L 324 43.2 
L 45 43.2 
z
" style="fill: #ffffff"/>
   </g>
   <g id="patch_3">
    <path d="M 259.587907 215.359528 
L 293.360821 220.088676 
L 275.8777 207.901426 
z
" clip-path="url(#p35e79acaf5)" style="fill: #ffff00; opacity: 0.5; stroke: #ffff00; stroke-linejoin: miter"/>
   </g>
   <g id="matplotlib.axis_1">
    <g id="xtick_1">
     <g id="line2d_1">
      <path d="M 85.863636 320.4 
L 85.863636 43.2 
" clip-path="url(#p35e79acaf5)" style="fill: none; stroke: #b0b0b0; stroke-width: 0.8; stroke-linecap: square"/>
     </g>
     <g id="line2d_2">
      <defs>
       <path id="m9f26703d57" d="M 0 0 
L 0 3.5 
" style="stroke: #000000; stroke-width: 0.8"/>
      </defs>
      <g>
       <use xlink:href="#m9f26703d57" x="85.863636" y="320.4" style="stroke: #000000; stroke-width: 0.8"/>
      </g>
     </g>
     <g id="text_1">
      <!-- −4 -->
      <g transform="translate(78.492543 334.998438) scale(0.1 -0.1)">
       <defs>
        <path id="DejaVuSans-2212" d="M 678 2272 
L 4684 2272 
L 4684 1741 
L 678 1741 
L 678 2272 
z
" transform="scale(0.015625)"/>
        <path id="DejaVuSans-34" d="M 2419 4116 
L 825 1625 
L 2419 1625 
L 2419 4116 
z
M 2253 4666 
L 3047 4666 
L 3047 1625 
L 3713 1625 
L 3713 1100 
L 3047 1100 
L 3047 0 
L 2419 0 
L 2419 1100 
L 313 1100 
L 313 1709 
L 2253 4666 
z
" transform="scale(0.015625)"/>
       </defs>
       <use xlink:href="#DejaVuSans-2212"/>
       <use xlink:href="#DejaVuSans-34" x="83.789062"/>
      </g>
     </g>
    </g>
    <g id="xtick_2">
     <g id="line2d_3">
      <path d="M 142.227273 320.4 
L 142.227273 43.2 
" clip-path="url(#p35e79acaf5)" style="fill: none; stroke: #b0b0b0; stroke-width: 0.8; stroke-linecap: square"/>
     </g>
     <g id="line2d_4">
      <g>
       <use xlink:href="#m9f26703d57" x="142.227273" y="320.4" style="stroke: #000000; stroke-width: 0.8"/>
      </g>
     </g>
     <g id="text_2">
      <!-- −2 -->
      <g transform="translate(134.856179 334.998438) scale(0.1 -0.1)">
       <defs>
        <path id="DejaVuSans-32" d="M 1228 531 
L 3431 531 
L 3431 0 
L 469 0 
L 469 531 
Q 828 903 1448 1529 
Q 2069 2156 2228 2338 
Q 2531 2678 2651 2914 
Q 2772 3150 2772 3378 
Q 2772 3750 2511 3984 
Q 2250 4219 1831 4219 
Q 1534 4219 1204 4116 
Q 875 4013 500 3803 
L 500 4441 
Q 881 4594 1212 4672 
Q 1544 4750 1819 4750 
Q 2544 4750 2975 4387 
Q 3406 4025 3406 3419 
Q 3406 3131 3298 2873 
Q 3191 2616 2906 2266 
Q 2828 2175 2409 1742 
Q 1991 1309 1228 531 
z
" transform="scale(0.015625)"/>
       </defs>
       <use xlink:href="#DejaVuSans-2212"/>
       <use xlink:href="#DejaVuSans-32" x="83.789062"/>
      </g>
     </g>
    </g>
    <g id="xtick_3">
     <g id="line2d_5">
      <path d="M 198.590909 320.4 
L 198.590909 43.2 
" clip-path="url(#p35e79acaf5)" style="fill: none; stroke: #b0b0b0; stroke-width: 0.8; stroke-linecap: square"/>
     </g>
     <g id="line2d_6">
      <g>
       <use xlink:href="#m9f26703d57" x="198.590909" y="320.4" style="stroke: #000000; stroke-width: 0.8"/>
      </g>
     </g>
     <g id="text_3">
      <!-- 0 -->
      <g transform="translate(195.409659 334.998438) scale(0.1 -0.1)">
       <defs>
        <path id="DejaVuSans-30" d="M 2034 4250 
Q 1547 4250 1301 3770 
Q 1056 3291 1056 2328 
Q 1056 1369 1301 889 
Q 1547 409 2034 409 
Q 2525 409 2770 889 
Q 3016 1369 3016 2328 
Q 3016 3291 2770 3770 
Q 2525 4250 2034 4250 
z
M 2034 4750 
Q 2819 4750 3233 4129 
Q 3647 3509 3647 2328 
Q 3647 1150 3233 529 
Q 2819 -91 2034 -91 
Q 1250 -91 836 529 
Q 422 1150 422 2328 
Q 422 3509 836 4129 
Q 1250 4750 2034 4750 
z
" transform="scale(0.015625)"/>
       </defs>
       <use xlink:href="#DejaVuSans-30"/>
      </g>
     </g>
    </g>
    <g id="xtick_4">
     <g id="line2d_7">
      <path d="M 254.954545 320.4 
L 254.954545 43.2 
" clip-path="url(#p35e79acaf5)" style="fill: none; stroke: #b0b0b0; stroke-width: 0.8; stroke-linecap: square"/>
     </g>
     <g id="line2d_8">
      <g>
       <use xlink:href="#m9f26703d57" x="254.954545" y="320.4" style="stroke: #000000; stroke-width: 0.8"/>
      </g>
     </g>
     <g id="text_4">
      <!-- 2 -->
      <g transform="translate(251.773295 334.998438) scale(0.1 -0.1)">
       <use xlink:href="#DejaVuSans-32"/>
      </g>
     </g>
    </g>
    <g id="xtick_5">
     <g id="line2d_9">
      <path d="M 311.318182 320.4 
L 311.318182 43.2 
" clip-path="url(#p35e79acaf5)" style="fill: none; stroke: #b0b0b0; stroke-width: 0.8; stroke-linecap: square"/>
     </g>
     <g id="line2d_10">
      <g>
       <use xlink:href="#m9f26703d57" x="311.318182" y="320.4" style="stroke: #000000; stroke-width: 0.8"/>
      </g>
     </g>
     <g id="text_5">
      <!-- 4 -->
      <g transform="translate(308.136932 334.998438) scale(0.1 -0.1)">
       <use xlink:href="#DejaVuSans-34"/>
      </g>
     </g>
    </g>
    <g id="text_6">
     <!-- x1 -->
     <g transform="translate(177.13125 350.19625) scale(0.12 -0.12)">
      <defs>
       <path id="DejaVuSans-78" d="M 3513 3500 
L 2247 1797 
L 3578 0 
L 2900 0 
L 1881 1375 
L 863 0 
L 184 0 
L 1544 1831 
L 300 3500 
L 978 3500 
L 1906 2253 
L 2834 3500 
L 3513 3500 
z
" transform="scale(0.015625)"/>
       <path id="DejaVuSans-31" d="M 794 531 
L 1825 531 
L 1825 4091 
L 703 3866 
L 703 4441 
L 1819 4666 
L 2450 4666 
L 2450 531 
L 3481 531 
L 3481 0 
L 794 0 
L 794 531 
z
" transform="scale(0.015625)"/>
      </defs>
      <use xlink:href="#DejaVuSans-78"/>
      <use xlink:href="#DejaVuSans-31" x="59.179688"/>
     </g>
    </g>
   </g>
   <g id="matplotlib.axis_2">
    <g id="ytick_1">
     <g id="line2d_11">
      <path d="M 45 276.808139 
L 324 276.808139 
" clip-path="url(#p35e79acaf5)" style="fill: none; stroke: #b0b0b0; stroke-width: 0.8; stroke-linecap: square"/>
     </g>
     <g id="line2d_12">
      <defs>
       <path id="m656ea036b7" d="M 0 0 
L -3.5 0 
" style="stroke: #000000; stroke-width: 0.8"/>
      </defs>
      <g>
       <use xlink:href="#m656ea036b7" x="45" y="276.808139" style="stroke: #000000; stroke-width: 0.8"/>
      </g>
     </g>
     <g id="text_7">
      <!-- 5 -->
      <g transform="translate(31.6375 280.607358) scale(0.1 -0.1)">
       <defs>
        <path id="DejaVuSans-35" d="M 691 4666 
L 3169 4666 
L 3169 4134 
L 1269 4134 
L 1269 2991 
Q 1406 3038 1543 3061 
Q 1681 3084 1819 3084 
Q 2600 3084 3056 2656 
Q 3513 2228 3513 1497 
Q 3513 744 3044 326 
Q 2575 -91 1722 -91 
Q 1428 -91 1123 -41 
Q 819 9 494 109 
L 494 744 
Q 775 591 1075 516 
Q 1375 441 1709 441 
Q 2250 441 2565 725 
Q 2881 1009 2881 1497 
Q 2881 1984 2565 2268 
Q 2250 2553 1709 2553 
Q 1456 2553 1204 2497 
Q 953 2441 691 2322 
L 691 4666 
z
" transform="scale(0.015625)"/>
       </defs>
       <use xlink:href="#DejaVuSans-35"/>
      </g>
     </g>
    </g>
    <g id="ytick_2">
     <g id="line2d_13">
      <path d="M 45 217.986851 
L 324 217.986851 
" clip-path="url(#p35e79acaf5)" style="fill: none; stroke: #b0b0b0; stroke-width: 0.8; stroke-linecap: square"/>
     </g>
     <g id="line2d_14">
      <g>
       <use xlink:href="#m656ea036b7" x="45" y="217.986851" style="stroke: #000000; stroke-width: 0.8"/>
      </g>
     </g>
     <g id="text_8">
      <!-- 10 -->
      <g transform="translate(25.275 221.78607) scale(0.1 -0.1)">
       <use xlink:href="#DejaVuSans-31"/>
       <use xlink:href="#DejaVuSans-30" x="63.623047"/>
      </g>
     </g>
    </g>
    <g id="ytick_3">
     <g id="line2d_15">
      <path d="M 45 159.165564 
L 324 159.165564 
" clip-path="url(#p35e79acaf5)" style="fill: none; stroke: #b0b0b0; stroke-width: 0.8; stroke-linecap: square"/>
     </g>
     <g id="line2d_16">
      <g>
       <use xlink:href="#m656ea036b7" x="45" y="159.165564" style="stroke: #000000; stroke-width: 0.8"/>
      </g>
     </g>
     <g id="text_9">
      <!-- 15 -->
      <g transform="translate(25.275 162.964782) scale(0.1 -0.1)">
       <use xlink:href="#DejaVuSans-31"/>
       <use xlink:href="#DejaVuSans-35" x="63.623047"/>
      </g>
     </g>
    </g>
    <g id="ytick_4">
     <g id="line2d_17">
      <path d="M 45 100.344276 
L 324 100.344276 
" clip-path="url(#p35e79acaf5)" style="fill: none; stroke: #b0b0b0; stroke-width: 0.8; stroke-linecap: square"/>
     </g>
     <g id="line2d_18">
      <g>
       <use xlink:href="#m656ea036b7" x="45" y="100.344276" style="stroke: #000000; stroke-width: 0.8"/>
      </g>
     </g>
     <g id="text_10">
      <!-- 20 -->
      <g transform="translate(25.275 104.143495) scale(0.1 -0.1)">
       <use xlink:href="#DejaVuSans-32"/>
       <use xlink:href="#DejaVuSans-30" x="63.623047"/>
      </g>
     </g>
    </g>
    <g id="text_11">
     <!-- x2 -->
     <g transform="translate(18.779375 189.16875) rotate(-90) scale(0.12 -0.12)">
      <use xlink:href="#DejaVuSans-78"/>
      <use xlink:href="#DejaVuSans-32" x="59.179688"/>
     </g>
    </g>
   </g>
   <g id="line2d_19">
    <path d="M 57.681818 307.8 
L 85.863636 294.897266 
L 114.045455 281.994532 
L 142.227273 269.091798 
L 170.409091 256.189064 
L 198.590909 243.28633 
L 226.772727 230.383596 
L 254.954545 217.480862 
L 283.136364 204.578128 
L 311.318182 191.675394 
" clip-path="url(#p35e79acaf5)" style="fill: none; stroke-dasharray: 5.55,2.4; stroke-dashoffset: 0; stroke: #800080; stroke-width: 1.5"/>
   </g>
   <g id="line2d_20">
    <path d="M 57.681818 187.087061 
L 85.863636 191.033299 
L 114.045455 194.979537 
L 142.227273 198.925776 
L 170.409091 202.872014 
L 198.590909 206.818252 
L 226.772727 210.764491 
L 254.954545 214.710729 
L 283.136364 218.656967 
L 311.318182 222.603205 
" clip-path="url(#p35e79acaf5)" style="fill: none; stroke-dasharray: 1.5,2.475; stroke-dashoffset: 0; stroke: #ff0000; stroke-width: 1.5"/>
   </g>
   <g id="line2d_21">
    <path d="M 57.681818 55.8 
L 85.863636 75.445168 
L 114.045455 95.090336 
L 142.227273 114.735504 
L 170.409091 134.380672 
L 198.590909 154.025839 
L 226.772727 173.671007 
L 254.954545 193.316175 
L 283.136364 212.961343 
L 311.318182 232.606511 
" clip-path="url(#p35e79acaf5)" style="fill: none; stroke-dasharray: 9.6,2.4,1.5,2.4; stroke-dashoffset: 0; stroke: #149fff; stroke-width: 1.5"/>
   </g>
   <g id="line2d_22">
    <path d="M 259.587907 215.359528 
" clip-path="url(#p35e79acaf5)" style="fill: none; stroke: #ff14f8; stroke-width: 1.5; stroke-linecap: square"/>
    <defs>
     <path id="mb2b09c0c8b" d="M 0 1.5 
C 0.397805 1.5 0.77937 1.341951 1.06066 1.06066 
C 1.341951 0.77937 1.5 0.397805 1.5 0 
C 1.5 -0.397805 1.341951 -0.77937 1.06066 -1.06066 
C 0.77937 -1.341951 0.397805 -1.5 0 -1.5 
C -0.397805 -1.5 -0.77937 -1.341951 -1.06066 -1.06066 
C -1.341951 -0.77937 -1.5 -0.397805 -1.5 0 
C -1.5 0.397805 -1.341951 0.77937 -1.06066 1.06066 
C -0.77937 1.341951 -0.397805 1.5 0 1.5 
z
" style="stroke: #ff14f8"/>
    </defs>
    <g clip-path="url(#p35e79acaf5)">
     <use xlink:href="#mb2b09c0c8b" x="259.587907" y="215.359528" style="fill: #ff14f8; stroke: #ff14f8"/>
    </g>
   </g>
   <g id="line2d_23">
    <path d="M 293.360821 220.088676 
" clip-path="url(#p35e79acaf5)" style="fill: none; stroke: #ff14f8; stroke-width: 1.5; stroke-linecap: square"/>
    <g clip-path="url(#p35e79acaf5)">
     <use xlink:href="#mb2b09c0c8b" x="293.360821" y="220.088676" style="fill: #ff14f8; stroke: #ff14f8"/>
    </g>
   </g>
   <g id="line2d_24">
    <path d="M 275.8777 207.901426 
" clip-path="url(#p35e79acaf5)" style="fill: none; stroke: #ff14f8; stroke-width: 1.5; stroke-linecap: square"/>
    <g clip-path="url(#p35e79acaf5)">
     <use xlink:href="#mb2b09c0c8b" x="275.8777" y="207.901426" style="fill: #ff14f8; stroke: #ff14f8"/>
    </g>
   </g>
   <g id="patch_4">
    <path d="M 45 320.4 
L 45 43.2 
" style="fill: none; stroke: #000000; stroke-width: 0.8; stroke-linejoin: miter; stroke-linecap: square"/>
   </g>
   <g id="patch_5">
    <path d="M 324 320.4 
L 324 43.2 
" style="fill: none; stroke: #000000; stroke-width: 0.8; stroke-linejoin: miter; stroke-linecap: square"/>
   </g>
   <g id="patch_6">
    <path d="M 45 320.4 
L 324 320.4 
" style="fill: none; stroke: #000000; stroke-width: 0.8; stroke-linejoin: miter; stroke-linecap: square"/>
   </g>
   <g id="patch_7">
    <path d="M 45 43.2 
L 324 43.2 
" style="fill: none; stroke: #000000; stroke-width: 0.8; stroke-linejoin: miter; stroke-linecap: square"/>
   </g>
   <g id="text_12">
    <!-- $-10.2x_1+9.3x_2=73$ -->
    <g style="fill: #800080" transform="translate(144.154016 282.807178) rotate(-25) scale(0.06 -0.06)">
     <defs>
      <path id="DejaVuSans-2e" d="M 684 794 
L 1344 794 
L 1344 0 
L 684 0 
L 684 794 
z
" transform="scale(0.015625)"/>
      <path id="DejaVuSans-Oblique-78" d="M 3841 3500 
L 2234 1784 
L 3219 0 
L 2559 0 
L 1819 1388 
L 531 0 
L -166 0 
L 1556 1844 
L 641 3500 
L 1300 3500 
L 1972 2234 
L 3144 3500 
L 3841 3500 
z
" transform="scale(0.015625)"/>
      <path id="DejaVuSans-2b" d="M 2944 4013 
L 2944 2272 
L 4684 2272 
L 4684 1741 
L 2944 1741 
L 2944 0 
L 2419 0 
L 2419 1741 
L 678 1741 
L 678 2272 
L 2419 2272 
L 2419 4013 
L 2944 4013 
z
" transform="scale(0.015625)"/>
      <path id="DejaVuSans-39" d="M 703 97 
L 703 672 
Q 941 559 1184 500 
Q 1428 441 1663 441 
Q 2288 441 2617 861 
Q 2947 1281 2994 2138 
Q 2813 1869 2534 1725 
Q 2256 1581 1919 1581 
Q 1219 1581 811 2004 
Q 403 2428 403 3163 
Q 403 3881 828 4315 
Q 1253 4750 1959 4750 
Q 2769 4750 3195 4129 
Q 3622 3509 3622 2328 
Q 3622 1225 3098 567 
Q 2575 -91 1691 -91 
Q 1453 -91 1209 -44 
Q 966 3 703 97 
z
M 1959 2075 
Q 2384 2075 2632 2365 
Q 2881 2656 2881 3163 
Q 2881 3666 2632 3958 
Q 2384 4250 1959 4250 
Q 1534 4250 1286 3958 
Q 1038 3666 1038 3163 
Q 1038 2656 1286 2365 
Q 1534 2075 1959 2075 
z
" transform="scale(0.015625)"/>
      <path id="DejaVuSans-33" d="M 2597 2516 
Q 3050 2419 3304 2112 
Q 3559 1806 3559 1356 
Q 3559 666 3084 287 
Q 2609 -91 1734 -91 
Q 1441 -91 1130 -33 
Q 819 25 488 141 
L 488 750 
Q 750 597 1062 519 
Q 1375 441 1716 441 
Q 2309 441 2620 675 
Q 2931 909 2931 1356 
Q 2931 1769 2642 2001 
Q 2353 2234 1838 2234 
L 1294 2234 
L 1294 2753 
L 1863 2753 
Q 2328 2753 2575 2939 
Q 2822 3125 2822 3475 
Q 2822 3834 2567 4026 
Q 2313 4219 1838 4219 
Q 1578 4219 1281 4162 
Q 984 4106 628 3988 
L 628 4550 
Q 988 4650 1302 4700 
Q 1616 4750 1894 4750 
Q 2613 4750 3031 4423 
Q 3450 4097 3450 3541 
Q 3450 3153 3228 2886 
Q 3006 2619 2597 2516 
z
" transform="scale(0.015625)"/>
      <path id="DejaVuSans-3d" d="M 678 2906 
L 4684 2906 
L 4684 2381 
L 678 2381 
L 678 2906 
z
M 678 1631 
L 4684 1631 
L 4684 1100 
L 678 1100 
L 678 1631 
z
" transform="scale(0.015625)"/>
      <path id="DejaVuSans-37" d="M 525 4666 
L 3525 4666 
L 3525 4397 
L 1831 0 
L 1172 0 
L 2766 4134 
L 525 4134 
L 525 4666 
z
" transform="scale(0.015625)"/>
     </defs>
     <use xlink:href="#DejaVuSans-2212" transform="translate(0 0.78125)"/>
     <use xlink:href="#DejaVuSans-31" transform="translate(83.789062 0.78125)"/>
     <use xlink:href="#DejaVuSans-30" transform="translate(147.412109 0.78125)"/>
     <use xlink:href="#DejaVuSans-2e" transform="translate(211.035156 0.78125)"/>
     <use xlink:href="#DejaVuSans-32" transform="translate(237.322266 0.78125)"/>
     <use xlink:href="#DejaVuSans-Oblique-78" transform="translate(300.945312 0.78125)"/>
     <use xlink:href="#DejaVuSans-31" transform="translate(360.125 -15.625) scale(0.7)"/>
     <use xlink:href="#DejaVuSans-2b" transform="translate(426.87793 0.78125)"/>
     <use xlink:href="#DejaVuSans-39" transform="translate(530.149414 0.78125)"/>
     <use xlink:href="#DejaVuSans-2e" transform="translate(593.772461 0.78125)"/>
     <use xlink:href="#DejaVuSans-33" transform="translate(625.55957 0.78125)"/>
     <use xlink:href="#DejaVuSans-Oblique-78" transform="translate(689.182617 0.78125)"/>
     <use xlink:href="#DejaVuSans-32" transform="translate(748.362305 -15.625) scale(0.7)"/>
     <use xlink:href="#DejaVuSans-3d" transform="translate(815.115234 0.78125)"/>
     <use xlink:href="#DejaVuSans-37" transform="translate(918.386719 0.78125)"/>
     <use xlink:href="#DejaVuSans-33" transform="translate(982.009766 0.78125)"/>
    </g>
   </g>
   <g id="text_13">
    <!-- $5.3x_1+15.8x_2=173$ -->
    <g style="fill: #ff0000" transform="translate(142.379343 210.471939) rotate(-353) scale(0.06 -0.06)">
     <defs>
      <path id="DejaVuSans-38" d="M 2034 2216 
Q 1584 2216 1326 1975 
Q 1069 1734 1069 1313 
Q 1069 891 1326 650 
Q 1584 409 2034 409 
Q 2484 409 2743 651 
Q 3003 894 3003 1313 
Q 3003 1734 2745 1975 
Q 2488 2216 2034 2216 
z
M 1403 2484 
Q 997 2584 770 2862 
Q 544 3141 544 3541 
Q 544 4100 942 4425 
Q 1341 4750 2034 4750 
Q 2731 4750 3128 4425 
Q 3525 4100 3525 3541 
Q 3525 3141 3298 2862 
Q 3072 2584 2669 2484 
Q 3125 2378 3379 2068 
Q 3634 1759 3634 1313 
Q 3634 634 3220 271 
Q 2806 -91 2034 -91 
Q 1263 -91 848 271 
Q 434 634 434 1313 
Q 434 1759 690 2068 
Q 947 2378 1403 2484 
z
M 1172 3481 
Q 1172 3119 1398 2916 
Q 1625 2713 2034 2713 
Q 2441 2713 2670 2916 
Q 2900 3119 2900 3481 
Q 2900 3844 2670 4047 
Q 2441 4250 2034 4250 
Q 1625 4250 1398 4047 
Q 1172 3844 1172 3481 
z
" transform="scale(0.015625)"/>
     </defs>
     <use xlink:href="#DejaVuSans-35" transform="translate(0 0.78125)"/>
     <use xlink:href="#DejaVuSans-2e" transform="translate(63.623047 0.78125)"/>
     <use xlink:href="#DejaVuSans-33" transform="translate(95.410156 0.78125)"/>
     <use xlink:href="#DejaVuSans-Oblique-78" transform="translate(159.033203 0.78125)"/>
     <use xlink:href="#DejaVuSans-31" transform="translate(218.212891 -15.625) scale(0.7)"/>
     <use xlink:href="#DejaVuSans-2b" transform="translate(284.96582 0.78125)"/>
     <use xlink:href="#DejaVuSans-31" transform="translate(388.237305 0.78125)"/>
     <use xlink:href="#DejaVuSans-35" transform="translate(451.860352 0.78125)"/>
     <use xlink:href="#DejaVuSans-2e" transform="translate(515.483398 0.78125)"/>
     <use xlink:href="#DejaVuSans-38" transform="translate(544.645508 0.78125)"/>
     <use xlink:href="#DejaVuSans-Oblique-78" transform="translate(608.268555 0.78125)"/>
     <use xlink:href="#DejaVuSans-32" transform="translate(667.448242 -15.625) scale(0.7)"/>
     <use xlink:href="#DejaVuSans-3d" transform="translate(734.201172 0.78125)"/>
     <use xlink:href="#DejaVuSans-31" transform="translate(837.472656 0.78125)"/>
     <use xlink:href="#DejaVuSans-37" transform="translate(901.095703 0.78125)"/>
     <use xlink:href="#DejaVuSans-33" transform="translate(964.71875 0.78125)"/>
    </g>
   </g>
   <g id="text_14">
    <!-- $17.2x_1+10.3x_2=159$ -->
    <g style="fill: #149fff" transform="translate(86.579352 86.793044) rotate(-325) scale(0.06 -0.06)">
     <use xlink:href="#DejaVuSans-31" transform="translate(0 0.78125)"/>
     <use xlink:href="#DejaVuSans-37" transform="translate(63.623047 0.78125)"/>
     <use xlink:href="#DejaVuSans-2e" transform="translate(127.246094 0.78125)"/>
     <use xlink:href="#DejaVuSans-32" transform="translate(153.533203 0.78125)"/>
     <use xlink:href="#DejaVuSans-Oblique-78" transform="translate(217.15625 0.78125)"/>
     <use xlink:href="#DejaVuSans-31" transform="translate(276.335938 -15.625) scale(0.7)"/>
     <use xlink:href="#DejaVuSans-2b" transform="translate(343.088867 0.78125)"/>
     <use xlink:href="#DejaVuSans-31" transform="translate(446.360352 0.78125)"/>
     <use xlink:href="#DejaVuSans-30" transform="translate(509.983398 0.78125)"/>
     <use xlink:href="#DejaVuSans-2e" transform="translate(573.606445 0.78125)"/>
     <use xlink:href="#DejaVuSans-33" transform="translate(605.393555 0.78125)"/>
     <use xlink:href="#DejaVuSans-Oblique-78" transform="translate(669.016602 0.78125)"/>
     <use xlink:href="#DejaVuSans-32" transform="translate(728.196289 -15.625) scale(0.7)"/>
     <use xlink:href="#DejaVuSans-3d" transform="translate(794.949219 0.78125)"/>
     <use xlink:href="#DejaVuSans-31" transform="translate(898.220703 0.78125)"/>
     <use xlink:href="#DejaVuSans-35" transform="translate(961.84375 0.78125)"/>
     <use xlink:href="#DejaVuSans-39" transform="translate(1019.966797 0.78125)"/>
    </g>
   </g>
   <g id="patch_8">
    <path d="M 239.716507 129.277732 
Q 248.66273 167.537939 257.608952 205.798146 
L 258.826121 205.51354 
Q 258.665286 208.119733 258.504451 210.725925 
Q 257.204684 208.461259 255.904916 206.196594 
L 257.122085 205.911988 
Q 248.175862 167.651781 239.229639 129.391574 
L 239.716507 129.277732 
z
" style="stroke: #000000; stroke-linecap: round"/>
   </g>
   <g id="text_15">
    <!-- The intersection point between f[0] and f[1] -->
    <g transform="translate(160.951543 121.245468) scale(0.07 -0.07)">
     <defs>
      <path id="DejaVuSans-54" d="M -19 4666 
L 3928 4666 
L 3928 4134 
L 2272 4134 
L 2272 0 
L 1638 0 
L 1638 4134 
L -19 4134 
L -19 4666 
z
" transform="scale(0.015625)"/>
      <path id="DejaVuSans-68" d="M 3513 2113 
L 3513 0 
L 2938 0 
L 2938 2094 
Q 2938 2591 2744 2837 
Q 2550 3084 2163 3084 
Q 1697 3084 1428 2787 
Q 1159 2491 1159 1978 
L 1159 0 
L 581 0 
L 581 4863 
L 1159 4863 
L 1159 2956 
Q 1366 3272 1645 3428 
Q 1925 3584 2291 3584 
Q 2894 3584 3203 3211 
Q 3513 2838 3513 2113 
z
" transform="scale(0.015625)"/>
      <path id="DejaVuSans-65" d="M 3597 1894 
L 3597 1613 
L 953 1613 
Q 991 1019 1311 708 
Q 1631 397 2203 397 
Q 2534 397 2845 478 
Q 3156 559 3463 722 
L 3463 178 
Q 3153 47 2828 -22 
Q 2503 -91 2169 -91 
Q 1331 -91 842 396 
Q 353 884 353 1716 
Q 353 2575 817 3079 
Q 1281 3584 2069 3584 
Q 2775 3584 3186 3129 
Q 3597 2675 3597 1894 
z
M 3022 2063 
Q 3016 2534 2758 2815 
Q 2500 3097 2075 3097 
Q 1594 3097 1305 2825 
Q 1016 2553 972 2059 
L 3022 2063 
z
" transform="scale(0.015625)"/>
      <path id="DejaVuSans-20" transform="scale(0.015625)"/>
      <path id="DejaVuSans-69" d="M 603 3500 
L 1178 3500 
L 1178 0 
L 603 0 
L 603 3500 
z
M 603 4863 
L 1178 4863 
L 1178 4134 
L 603 4134 
L 603 4863 
z
" transform="scale(0.015625)"/>
      <path id="DejaVuSans-6e" d="M 3513 2113 
L 3513 0 
L 2938 0 
L 2938 2094 
Q 2938 2591 2744 2837 
Q 2550 3084 2163 3084 
Q 1697 3084 1428 2787 
Q 1159 2491 1159 1978 
L 1159 0 
L 581 0 
L 581 3500 
L 1159 3500 
L 1159 2956 
Q 1366 3272 1645 3428 
Q 1925 3584 2291 3584 
Q 2894 3584 3203 3211 
Q 3513 2838 3513 2113 
z
" transform="scale(0.015625)"/>
      <path id="DejaVuSans-74" d="M 1172 4494 
L 1172 3500 
L 2356 3500 
L 2356 3053 
L 1172 3053 
L 1172 1153 
Q 1172 725 1289 603 
Q 1406 481 1766 481 
L 2356 481 
L 2356 0 
L 1766 0 
Q 1100 0 847 248 
Q 594 497 594 1153 
L 594 3053 
L 172 3053 
L 172 3500 
L 594 3500 
L 594 4494 
L 1172 4494 
z
" transform="scale(0.015625)"/>
      <path id="DejaVuSans-72" d="M 2631 2963 
Q 2534 3019 2420 3045 
Q 2306 3072 2169 3072 
Q 1681 3072 1420 2755 
Q 1159 2438 1159 1844 
L 1159 0 
L 581 0 
L 581 3500 
L 1159 3500 
L 1159 2956 
Q 1341 3275 1631 3429 
Q 1922 3584 2338 3584 
Q 2397 3584 2469 3576 
Q 2541 3569 2628 3553 
L 2631 2963 
z
" transform="scale(0.015625)"/>
      <path id="DejaVuSans-73" d="M 2834 3397 
L 2834 2853 
Q 2591 2978 2328 3040 
Q 2066 3103 1784 3103 
Q 1356 3103 1142 2972 
Q 928 2841 928 2578 
Q 928 2378 1081 2264 
Q 1234 2150 1697 2047 
L 1894 2003 
Q 2506 1872 2764 1633 
Q 3022 1394 3022 966 
Q 3022 478 2636 193 
Q 2250 -91 1575 -91 
Q 1294 -91 989 -36 
Q 684 19 347 128 
L 347 722 
Q 666 556 975 473 
Q 1284 391 1588 391 
Q 1994 391 2212 530 
Q 2431 669 2431 922 
Q 2431 1156 2273 1281 
Q 2116 1406 1581 1522 
L 1381 1569 
Q 847 1681 609 1914 
Q 372 2147 372 2553 
Q 372 3047 722 3315 
Q 1072 3584 1716 3584 
Q 2034 3584 2315 3537 
Q 2597 3491 2834 3397 
z
" transform="scale(0.015625)"/>
      <path id="DejaVuSans-63" d="M 3122 3366 
L 3122 2828 
Q 2878 2963 2633 3030 
Q 2388 3097 2138 3097 
Q 1578 3097 1268 2742 
Q 959 2388 959 1747 
Q 959 1106 1268 751 
Q 1578 397 2138 397 
Q 2388 397 2633 464 
Q 2878 531 3122 666 
L 3122 134 
Q 2881 22 2623 -34 
Q 2366 -91 2075 -91 
Q 1284 -91 818 406 
Q 353 903 353 1747 
Q 353 2603 823 3093 
Q 1294 3584 2113 3584 
Q 2378 3584 2631 3529 
Q 2884 3475 3122 3366 
z
" transform="scale(0.015625)"/>
      <path id="DejaVuSans-6f" d="M 1959 3097 
Q 1497 3097 1228 2736 
Q 959 2375 959 1747 
Q 959 1119 1226 758 
Q 1494 397 1959 397 
Q 2419 397 2687 759 
Q 2956 1122 2956 1747 
Q 2956 2369 2687 2733 
Q 2419 3097 1959 3097 
z
M 1959 3584 
Q 2709 3584 3137 3096 
Q 3566 2609 3566 1747 
Q 3566 888 3137 398 
Q 2709 -91 1959 -91 
Q 1206 -91 779 398 
Q 353 888 353 1747 
Q 353 2609 779 3096 
Q 1206 3584 1959 3584 
z
" transform="scale(0.015625)"/>
      <path id="DejaVuSans-70" d="M 1159 525 
L 1159 -1331 
L 581 -1331 
L 581 3500 
L 1159 3500 
L 1159 2969 
Q 1341 3281 1617 3432 
Q 1894 3584 2278 3584 
Q 2916 3584 3314 3078 
Q 3713 2572 3713 1747 
Q 3713 922 3314 415 
Q 2916 -91 2278 -91 
Q 1894 -91 1617 61 
Q 1341 213 1159 525 
z
M 3116 1747 
Q 3116 2381 2855 2742 
Q 2594 3103 2138 3103 
Q 1681 3103 1420 2742 
Q 1159 2381 1159 1747 
Q 1159 1113 1420 752 
Q 1681 391 2138 391 
Q 2594 391 2855 752 
Q 3116 1113 3116 1747 
z
" transform="scale(0.015625)"/>
      <path id="DejaVuSans-62" d="M 3116 1747 
Q 3116 2381 2855 2742 
Q 2594 3103 2138 3103 
Q 1681 3103 1420 2742 
Q 1159 2381 1159 1747 
Q 1159 1113 1420 752 
Q 1681 391 2138 391 
Q 2594 391 2855 752 
Q 3116 1113 3116 1747 
z
M 1159 2969 
Q 1341 3281 1617 3432 
Q 1894 3584 2278 3584 
Q 2916 3584 3314 3078 
Q 3713 2572 3713 1747 
Q 3713 922 3314 415 
Q 2916 -91 2278 -91 
Q 1894 -91 1617 61 
Q 1341 213 1159 525 
L 1159 0 
L 581 0 
L 581 4863 
L 1159 4863 
L 1159 2969 
z
" transform="scale(0.015625)"/>
      <path id="DejaVuSans-77" d="M 269 3500 
L 844 3500 
L 1563 769 
L 2278 3500 
L 2956 3500 
L 3675 769 
L 4391 3500 
L 4966 3500 
L 4050 0 
L 3372 0 
L 2619 2869 
L 1863 0 
L 1184 0 
L 269 3500 
z
" transform="scale(0.015625)"/>
      <path id="DejaVuSans-66" d="M 2375 4863 
L 2375 4384 
L 1825 4384 
Q 1516 4384 1395 4259 
Q 1275 4134 1275 3809 
L 1275 3500 
L 2222 3500 
L 2222 3053 
L 1275 3053 
L 1275 0 
L 697 0 
L 697 3053 
L 147 3053 
L 147 3500 
L 697 3500 
L 697 3744 
Q 697 4328 969 4595 
Q 1241 4863 1831 4863 
L 2375 4863 
z
" transform="scale(0.015625)"/>
      <path id="DejaVuSans-5b" d="M 550 4863 
L 1875 4863 
L 1875 4416 
L 1125 4416 
L 1125 -397 
L 1875 -397 
L 1875 -844 
L 550 -844 
L 550 4863 
z
" transform="scale(0.015625)"/>
      <path id="DejaVuSans-5d" d="M 1947 4863 
L 1947 -844 
L 622 -844 
L 622 -397 
L 1369 -397 
L 1369 4416 
L 622 4416 
L 622 4863 
L 1947 4863 
z
" transform="scale(0.015625)"/>
      <path id="DejaVuSans-61" d="M 2194 1759 
Q 1497 1759 1228 1600 
Q 959 1441 959 1056 
Q 959 750 1161 570 
Q 1363 391 1709 391 
Q 2188 391 2477 730 
Q 2766 1069 2766 1631 
L 2766 1759 
L 2194 1759 
z
M 3341 1997 
L 3341 0 
L 2766 0 
L 2766 531 
Q 2569 213 2275 61 
Q 1981 -91 1556 -91 
Q 1019 -91 701 211 
Q 384 513 384 1019 
Q 384 1609 779 1909 
Q 1175 2209 1959 2209 
L 2766 2209 
L 2766 2266 
Q 2766 2663 2505 2880 
Q 2244 3097 1772 3097 
Q 1472 3097 1187 3025 
Q 903 2953 641 2809 
L 641 3341 
Q 956 3463 1253 3523 
Q 1550 3584 1831 3584 
Q 2591 3584 2966 3190 
Q 3341 2797 3341 1997 
z
" transform="scale(0.015625)"/>
      <path id="DejaVuSans-64" d="M 2906 2969 
L 2906 4863 
L 3481 4863 
L 3481 0 
L 2906 0 
L 2906 525 
Q 2725 213 2448 61 
Q 2172 -91 1784 -91 
Q 1150 -91 751 415 
Q 353 922 353 1747 
Q 353 2572 751 3078 
Q 1150 3584 1784 3584 
Q 2172 3584 2448 3432 
Q 2725 3281 2906 2969 
z
M 947 1747 
Q 947 1113 1208 752 
Q 1469 391 1925 391 
Q 2381 391 2643 752 
Q 2906 1113 2906 1747 
Q 2906 2381 2643 2742 
Q 2381 3103 1925 3103 
Q 1469 3103 1208 2742 
Q 947 2381 947 1747 
z
" transform="scale(0.015625)"/>
     </defs>
     <use xlink:href="#DejaVuSans-54"/>
     <use xlink:href="#DejaVuSans-68" x="61.083984"/>
     <use xlink:href="#DejaVuSans-65" x="124.462891"/>
     <use xlink:href="#DejaVuSans-20" x="185.986328"/>
     <use xlink:href="#DejaVuSans-69" x="217.773438"/>
     <use xlink:href="#DejaVuSans-6e" x="245.556641"/>
     <use xlink:href="#DejaVuSans-74" x="308.935547"/>
     <use xlink:href="#DejaVuSans-65" x="348.144531"/>
     <use xlink:href="#DejaVuSans-72" x="409.667969"/>
     <use xlink:href="#DejaVuSans-73" x="450.78125"/>
     <use xlink:href="#DejaVuSans-65" x="502.880859"/>
     <use xlink:href="#DejaVuSans-63" x="564.404297"/>
     <use xlink:href="#DejaVuSans-74" x="619.384766"/>
     <use xlink:href="#DejaVuSans-69" x="658.59375"/>
     <use xlink:href="#DejaVuSans-6f" x="686.376953"/>
     <use xlink:href="#DejaVuSans-6e" x="747.558594"/>
     <use xlink:href="#DejaVuSans-20" x="810.9375"/>
     <use xlink:href="#DejaVuSans-70" x="842.724609"/>
     <use xlink:href="#DejaVuSans-6f" x="906.201172"/>
     <use xlink:href="#DejaVuSans-69" x="967.382812"/>
     <use xlink:href="#DejaVuSans-6e" x="995.166016"/>
     <use xlink:href="#DejaVuSans-74" x="1058.544922"/>
     <use xlink:href="#DejaVuSans-20" x="1097.753906"/>
     <use xlink:href="#DejaVuSans-62" x="1129.541016"/>
     <use xlink:href="#DejaVuSans-65" x="1193.017578"/>
     <use xlink:href="#DejaVuSans-74" x="1254.541016"/>
     <use xlink:href="#DejaVuSans-77" x="1293.75"/>
     <use xlink:href="#DejaVuSans-65" x="1375.537109"/>
     <use xlink:href="#DejaVuSans-65" x="1437.060547"/>
     <use xlink:href="#DejaVuSans-6e" x="1498.583984"/>
     <use xlink:href="#DejaVuSans-20" x="1561.962891"/>
     <use xlink:href="#DejaVuSans-66" x="1593.75"/>
     <use xlink:href="#DejaVuSans-5b" x="1628.955078"/>
     <use xlink:href="#DejaVuSans-30" x="1667.96875"/>
     <use xlink:href="#DejaVuSans-5d" x="1731.591797"/>
     <use xlink:href="#DejaVuSans-20" x="1770.605469"/>
     <use xlink:href="#DejaVuSans-61" x="1802.392578"/>
     <use xlink:href="#DejaVuSans-6e" x="1863.671875"/>
     <use xlink:href="#DejaVuSans-64" x="1927.050781"/>
     <use xlink:href="#DejaVuSans-20" x="1990.527344"/>
     <use xlink:href="#DejaVuSans-66" x="2022.314453"/>
     <use xlink:href="#DejaVuSans-5b" x="2057.519531"/>
     <use xlink:href="#DejaVuSans-31" x="2096.533203"/>
     <use xlink:href="#DejaVuSans-5d" x="2160.15625"/>
    </g>
   </g>
   <g id="patch_9">
    <path d="M 305.199515 302.47571 
Q 299.845614 265.995814 294.491714 229.515919 
L 293.254963 229.697428 
Q 293.633759 227.113416 294.012556 224.529403 
Q 295.117861 226.895604 296.223166 229.261806 
L 294.986415 229.443315 
Q 300.340315 265.923211 305.694215 302.403106 
L 305.199515 302.47571 
z
" style="stroke: #000000; stroke-linecap: round"/>
   </g>
   <g id="text_16">
    <!-- The intersection point between f[1] and f[2] -->
    <g transform="translate(152.45173 314.202736) scale(0.07 -0.07)">
     <use xlink:href="#DejaVuSans-54"/>
     <use xlink:href="#DejaVuSans-68" x="61.083984"/>
     <use xlink:href="#DejaVuSans-65" x="124.462891"/>
     <use xlink:href="#DejaVuSans-20" x="185.986328"/>
     <use xlink:href="#DejaVuSans-69" x="217.773438"/>
     <use xlink:href="#DejaVuSans-6e" x="245.556641"/>
     <use xlink:href="#DejaVuSans-74" x="308.935547"/>
     <use xlink:href="#DejaVuSans-65" x="348.144531"/>
     <use xlink:href="#DejaVuSans-72" x="409.667969"/>
     <use xlink:href="#DejaVuSans-73" x="450.78125"/>
     <use xlink:href="#DejaVuSans-65" x="502.880859"/>
     <use xlink:href="#DejaVuSans-63" x="564.404297"/>
     <use xlink:href="#DejaVuSans-74" x="619.384766"/>
     <use xlink:href="#DejaVuSans-69" x="658.59375"/>
     <use xlink:href="#DejaVuSans-6f" x="686.376953"/>
     <use xlink:href="#DejaVuSans-6e" x="747.558594"/>
     <use xlink:href="#DejaVuSans-20" x="810.9375"/>
     <use xlink:href="#DejaVuSans-70" x="842.724609"/>
     <use xlink:href="#DejaVuSans-6f" x="906.201172"/>
     <use xlink:href="#DejaVuSans-69" x="967.382812"/>
     <use xlink:href="#DejaVuSans-6e" x="995.166016"/>
     <use xlink:href="#DejaVuSans-74" x="1058.544922"/>
     <use xlink:href="#DejaVuSans-20" x="1097.753906"/>
     <use xlink:href="#DejaVuSans-62" x="1129.541016"/>
     <use xlink:href="#DejaVuSans-65" x="1193.017578"/>
     <use xlink:href="#DejaVuSans-74" x="1254.541016"/>
     <use xlink:href="#DejaVuSans-77" x="1293.75"/>
     <use xlink:href="#DejaVuSans-65" x="1375.537109"/>
     <use xlink:href="#DejaVuSans-65" x="1437.060547"/>
     <use xlink:href="#DejaVuSans-6e" x="1498.583984"/>
     <use xlink:href="#DejaVuSans-20" x="1561.962891"/>
     <use xlink:href="#DejaVuSans-66" x="1593.75"/>
     <use xlink:href="#DejaVuSans-5b" x="1628.955078"/>
     <use xlink:href="#DejaVuSans-31" x="1667.96875"/>
     <use xlink:href="#DejaVuSans-5d" x="1731.591797"/>
     <use xlink:href="#DejaVuSans-20" x="1770.605469"/>
     <use xlink:href="#DejaVuSans-61" x="1802.392578"/>
     <use xlink:href="#DejaVuSans-6e" x="1863.671875"/>
     <use xlink:href="#DejaVuSans-64" x="1927.050781"/>
     <use xlink:href="#DejaVuSans-20" x="1990.527344"/>
     <use xlink:href="#DejaVuSans-66" x="2022.314453"/>
     <use xlink:href="#DejaVuSans-5b" x="2057.519531"/>
     <use xlink:href="#DejaVuSans-32" x="2096.533203"/>
     <use xlink:href="#DejaVuSans-5d" x="2160.15625"/>
    </g>
   </g>
   <g id="patch_10">
    <path d="M 236.828353 187.729555 
Q 253.098257 196.017264 269.368161 204.304973 
L 269.935529 203.191153 
Q 271.822609 204.99411 273.70969 206.797066 
Q 271.141769 206.330693 268.573847 205.864321 
L 269.141214 204.750501 
Q 252.87131 196.462792 236.601406 188.175083 
L 236.828353 187.729555 
z
" style="stroke: #000000; stroke-linecap: round"/>
   </g>
   <g id="text_17">
    <!-- The intersection point between f[2] and f[0] -->
    <g transform="translate(78.604973 184.372911) scale(0.07 -0.07)">
     <use xlink:href="#DejaVuSans-54"/>
     <use xlink:href="#DejaVuSans-68" x="61.083984"/>
     <use xlink:href="#DejaVuSans-65" x="124.462891"/>
     <use xlink:href="#DejaVuSans-20" x="185.986328"/>
     <use xlink:href="#DejaVuSans-69" x="217.773438"/>
     <use xlink:href="#DejaVuSans-6e" x="245.556641"/>
     <use xlink:href="#DejaVuSans-74" x="308.935547"/>
     <use xlink:href="#DejaVuSans-65" x="348.144531"/>
     <use xlink:href="#DejaVuSans-72" x="409.667969"/>
     <use xlink:href="#DejaVuSans-73" x="450.78125"/>
     <use xlink:href="#DejaVuSans-65" x="502.880859"/>
     <use xlink:href="#DejaVuSans-63" x="564.404297"/>
     <use xlink:href="#DejaVuSans-74" x="619.384766"/>
     <use xlink:href="#DejaVuSans-69" x="658.59375"/>
     <use xlink:href="#DejaVuSans-6f" x="686.376953"/>
     <use xlink:href="#DejaVuSans-6e" x="747.558594"/>
     <use xlink:href="#DejaVuSans-20" x="810.9375"/>
     <use xlink:href="#DejaVuSans-70" x="842.724609"/>
     <use xlink:href="#DejaVuSans-6f" x="906.201172"/>
     <use xlink:href="#DejaVuSans-69" x="967.382812"/>
     <use xlink:href="#DejaVuSans-6e" x="995.166016"/>
     <use xlink:href="#DejaVuSans-74" x="1058.544922"/>
     <use xlink:href="#DejaVuSans-20" x="1097.753906"/>
     <use xlink:href="#DejaVuSans-62" x="1129.541016"/>
     <use xlink:href="#DejaVuSans-65" x="1193.017578"/>
     <use xlink:href="#DejaVuSans-74" x="1254.541016"/>
     <use xlink:href="#DejaVuSans-77" x="1293.75"/>
     <use xlink:href="#DejaVuSans-65" x="1375.537109"/>
     <use xlink:href="#DejaVuSans-65" x="1437.060547"/>
     <use xlink:href="#DejaVuSans-6e" x="1498.583984"/>
     <use xlink:href="#DejaVuSans-20" x="1561.962891"/>
     <use xlink:href="#DejaVuSans-66" x="1593.75"/>
     <use xlink:href="#DejaVuSans-5b" x="1628.955078"/>
     <use xlink:href="#DejaVuSans-32" x="1667.96875"/>
     <use xlink:href="#DejaVuSans-5d" x="1731.591797"/>
     <use xlink:href="#DejaVuSans-20" x="1770.605469"/>
     <use xlink:href="#DejaVuSans-61" x="1802.392578"/>
     <use xlink:href="#DejaVuSans-6e" x="1863.671875"/>
     <use xlink:href="#DejaVuSans-64" x="1927.050781"/>
     <use xlink:href="#DejaVuSans-20" x="1990.527344"/>
     <use xlink:href="#DejaVuSans-66" x="2022.314453"/>
     <use xlink:href="#DejaVuSans-5b" x="2057.519531"/>
     <use xlink:href="#DejaVuSans-30" x="2096.533203"/>
     <use xlink:href="#DejaVuSans-5d" x="2160.15625"/>
    </g>
   </g>
   <g id="text_18">
    <!-- All lines in one figure -->
    <g transform="translate(105.664453 37.2) scale(0.15 -0.15)">
     <defs>
      <path id="DejaVuSans-41" d="M 2188 4044 
L 1331 1722 
L 3047 1722 
L 2188 4044 
z
M 1831 4666 
L 2547 4666 
L 4325 0 
L 3669 0 
L 3244 1197 
L 1141 1197 
L 716 0 
L 50 0 
L 1831 4666 
z
" transform="scale(0.015625)"/>
      <path id="DejaVuSans-6c" d="M 603 4863 
L 1178 4863 
L 1178 0 
L 603 0 
L 603 4863 
z
" transform="scale(0.015625)"/>
      <path id="DejaVuSans-67" d="M 2906 1791 
Q 2906 2416 2648 2759 
Q 2391 3103 1925 3103 
Q 1463 3103 1205 2759 
Q 947 2416 947 1791 
Q 947 1169 1205 825 
Q 1463 481 1925 481 
Q 2391 481 2648 825 
Q 2906 1169 2906 1791 
z
M 3481 434 
Q 3481 -459 3084 -895 
Q 2688 -1331 1869 -1331 
Q 1566 -1331 1297 -1286 
Q 1028 -1241 775 -1147 
L 775 -588 
Q 1028 -725 1275 -790 
Q 1522 -856 1778 -856 
Q 2344 -856 2625 -561 
Q 2906 -266 2906 331 
L 2906 616 
Q 2728 306 2450 153 
Q 2172 0 1784 0 
Q 1141 0 747 490 
Q 353 981 353 1791 
Q 353 2603 747 3093 
Q 1141 3584 1784 3584 
Q 2172 3584 2450 3431 
Q 2728 3278 2906 2969 
L 2906 3500 
L 3481 3500 
L 3481 434 
z
" transform="scale(0.015625)"/>
      <path id="DejaVuSans-75" d="M 544 1381 
L 544 3500 
L 1119 3500 
L 1119 1403 
Q 1119 906 1312 657 
Q 1506 409 1894 409 
Q 2359 409 2629 706 
Q 2900 1003 2900 1516 
L 2900 3500 
L 3475 3500 
L 3475 0 
L 2900 0 
L 2900 538 
Q 2691 219 2414 64 
Q 2138 -91 1772 -91 
Q 1169 -91 856 284 
Q 544 659 544 1381 
z
M 1991 3584 
L 1991 3584 
z
" transform="scale(0.015625)"/>
     </defs>
     <use xlink:href="#DejaVuSans-41"/>
     <use xlink:href="#DejaVuSans-6c" x="68.408203"/>
     <use xlink:href="#DejaVuSans-6c" x="96.191406"/>
     <use xlink:href="#DejaVuSans-20" x="123.974609"/>
     <use xlink:href="#DejaVuSans-6c" x="155.761719"/>
     <use xlink:href="#DejaVuSans-69" x="183.544922"/>
     <use xlink:href="#DejaVuSans-6e" x="211.328125"/>
     <use xlink:href="#DejaVuSans-65" x="274.707031"/>
     <use xlink:href="#DejaVuSans-73" x="336.230469"/>
     <use xlink:href="#DejaVuSans-20" x="388.330078"/>
     <use xlink:href="#DejaVuSans-69" x="420.117188"/>
     <use xlink:href="#DejaVuSans-6e" x="447.900391"/>
     <use xlink:href="#DejaVuSans-20" x="511.279297"/>
     <use xlink:href="#DejaVuSans-6f" x="543.066406"/>
     <use xlink:href="#DejaVuSans-6e" x="604.248047"/>
     <use xlink:href="#DejaVuSans-65" x="667.626953"/>
     <use xlink:href="#DejaVuSans-20" x="729.150391"/>
     <use xlink:href="#DejaVuSans-66" x="760.9375"/>
     <use xlink:href="#DejaVuSans-69" x="796.142578"/>
     <use xlink:href="#DejaVuSans-67" x="823.925781"/>
     <use xlink:href="#DejaVuSans-75" x="887.402344"/>
     <use xlink:href="#DejaVuSans-72" x="950.78125"/>
     <use xlink:href="#DejaVuSans-65" x="989.644531"/>
    </g>
   </g>
   <g id="legend_1">
    <g id="patch_11">
     <path d="M 267.314062 95.234375 
L 317 95.234375 
Q 319 95.234375 319 93.234375 
L 319 50.2 
Q 319 48.2 317 48.2 
L 267.314062 48.2 
Q 265.314062 48.2 265.314062 50.2 
L 265.314062 93.234375 
Q 265.314062 95.234375 267.314062 95.234375 
z
" style="fill: #ffffff; opacity: 0.8; stroke: #cccccc; stroke-linejoin: miter"/>
    </g>
    <g id="line2d_25">
     <path d="M 269.314062 56.298437 
L 279.314062 56.298437 
L 289.314062 56.298437 
" style="fill: none; stroke-dasharray: 5.55,2.4; stroke-dashoffset: 0; stroke: #800080; stroke-width: 1.5"/>
    </g>
    <g id="text_19">
     <!-- f[0] -->
     <g transform="translate(297.314062 59.798437) scale(0.1 -0.1)">
      <use xlink:href="#DejaVuSans-66"/>
      <use xlink:href="#DejaVuSans-5b" x="35.205078"/>
      <use xlink:href="#DejaVuSans-30" x="74.21875"/>
      <use xlink:href="#DejaVuSans-5d" x="137.841797"/>
     </g>
    </g>
    <g id="line2d_26">
     <path d="M 269.314062 70.976562 
L 279.314062 70.976562 
L 289.314062 70.976562 
" style="fill: none; stroke-dasharray: 1.5,2.475; stroke-dashoffset: 0; stroke: #ff0000; stroke-width: 1.5"/>
    </g>
    <g id="text_20">
     <!-- f[1] -->
     <g transform="translate(297.314062 74.476562) scale(0.1 -0.1)">
      <use xlink:href="#DejaVuSans-66"/>
      <use xlink:href="#DejaVuSans-5b" x="35.205078"/>
      <use xlink:href="#DejaVuSans-31" x="74.21875"/>
      <use xlink:href="#DejaVuSans-5d" x="137.841797"/>
     </g>
    </g>
    <g id="line2d_27">
     <path d="M 269.314062 85.654687 
L 279.314062 85.654687 
L 289.314062 85.654687 
" style="fill: none; stroke-dasharray: 9.6,2.4,1.5,2.4; stroke-dashoffset: 0; stroke: #149fff; stroke-width: 1.5"/>
    </g>
    <g id="text_21">
     <!-- f[2] -->
     <g transform="translate(297.314062 89.154687) scale(0.1 -0.1)">
      <use xlink:href="#DejaVuSans-66"/>
      <use xlink:href="#DejaVuSans-5b" x="35.205078"/>
      <use xlink:href="#DejaVuSans-32" x="74.21875"/>
      <use xlink:href="#DejaVuSans-5d" x="137.841797"/>
     </g>
    </g>
   </g>
  </g>
 </g>
 <defs>
  <clipPath id="p35e79acaf5">
   <rect x="45" y="43.2" width="279" height="277.2"/>
  </clipPath>
 </defs>
</svg>
